<svg id="Capa_1" enable-background="new 0 0 609.66 609.66" height="512" viewBox="0 0 609.66 609.66" width="512" xmlns="http://www.w3.org/2000/svg"><g><g id="Page-1_41_"><g id="_x30_42---Call-Assistant" transform="translate(0 -1)"><path id="Path_326_" clip-rule="evenodd" d="m446.349 186.104c-6.012 0-10.886 4.874-10.886 10.886v76.202h54.43c12.024 0 21.772-9.748 21.772-21.772v-43.544c0-12.024-9.748-21.772-21.772-21.772z" fill-rule="evenodd"/><path id="Shape_82_" d="m258.02 385.123c1.959 1.317 3.93 2.721 5.889 3.962 12.165 8.312 26.249 13.385 40.921 14.74 18.904-2.324 36.773-9.918 51.567-21.914 8.96-6.198 17.133-13.461 24.341-21.631 7.794-9.314 13.743-20.029 17.527-31.57l15.426-46.385v-85.107c0-15.807-16.645-32.887-43.544-32.887-77.4 0-116.59-22.295-135.52-40.006-7.552 16.906-21.43 30.178-38.656 36.969v121.031l11.474 34.411h21.184c18.037 0 32.658 14.622 32.658 32.658v21.772c-.029 4.839-1.145 9.609-3.267 13.957zm57.696-3.07h-21.772c-6.012 0-10.886-4.874-10.886-10.886s4.874-10.886 10.886-10.886h21.772c6.012 0 10.886 4.874 10.886 10.886s-4.874 10.886-10.886 10.886zm10.886-32.658h-43.544c-6.012 0-10.886-4.874-10.886-10.886s4.874-10.886 10.886-10.886h43.544c6.012 0 10.886 4.874 10.886 10.886s-4.874 10.886-10.886 10.886zm43.544-97.974c0 6.012-4.874 10.886-10.886 10.886s-10.886-4.874-10.886-10.886c-6.012 0-10.886-4.874-10.886-10.886s4.874-10.886 10.886-10.886h21.772c6.012 0 10.886 4.874 10.886 10.886s-4.873 10.886-10.886 10.886zm-32.658-54.431h43.544c6.012 0 10.886 4.874 10.886 10.886s-4.874 10.886-10.886 10.886h-43.544c-6.012 0-10.886-4.874-10.886-10.886s4.874-10.886 10.886-10.886zm-43.544 87.089h21.772c6.012 0 10.886 4.874 10.886 10.886s-4.874 10.886-10.886 10.886h-21.772c-6.012 0-10.886-4.874-10.886-10.886s4.874-10.886 10.886-10.886zm-76.202-76.203c0-6.012 4.874-10.886 10.886-10.886h43.544c6.012 0 10.886 4.874 10.886 10.886s-4.874 10.886-10.886 10.886h-43.544c-6.012 0-10.886-4.873-10.886-10.886zm32.658 54.431c-6.012 0-10.886-4.874-10.886-10.886-6.012 0-10.886-4.874-10.886-10.886s4.874-10.886 10.886-10.886h21.772c6.012 0 10.886 4.874 10.886 10.886s-4.874 10.886-10.886 10.886c0 6.012-4.874 10.886-10.886 10.886z"/><g clip-rule="evenodd" fill-rule="evenodd"><path id="Path_325_" d="m427.048 170.864c5.562-4.2 12.332-6.491 19.301-6.532h7.413c-15.5-69.852-77.381-119.606-148.932-119.746h-2.351c-70.171 1.953-130.075 51.26-145.481 119.747h6.314c3.717.036 7.4.714 10.886 2.003v-12.889c0-4.993 3.397-9.346 8.241-10.559 1.404-.327 35.303-9.569 35.303-43.871-.005-5.223 3.701-9.714 8.83-10.7s10.236 1.809 12.169 6.661c.142.348 21.979 47.583 131.405 47.583 22.541-.832 43.966 9.825 56.902 28.303z"/><path id="Rectangle_49_" d="m206.856 338.52h21.772c6.012 0 10.886 4.874 10.886 10.886v21.772c0 6.012-4.874 10.886-10.886 10.886h-21.772c-6.012 0-10.886-4.874-10.886-10.886v-21.772c0-6.012 4.873-10.886 10.886-10.886z"/><path id="Path_324_" d="m380.673 474.095c-19.761-14.364-31.673-37.137-32.201-61.561-13.302 7.761-28.263 12.239-43.642 13.063-15.372-.865-30.323-5.34-43.642-13.063-.529 24.432-12.445 47.213-32.212 61.582 4.994 38.401 29.604 71.44 64.968 87.219v-15.992c0-6.012 4.874-10.886 10.886-10.886s10.886 4.874 10.886 10.886v15.992c35.373-15.777 59.983-48.829 64.957-87.24z"/><path id="Path_323_" d="m119.767 294.965c-3.68-.046-7.339-.566-10.886-1.546v45.09c0 18.037 14.622 32.658 32.658 32.658h32.658v-21.772h-21.772c-12.024 0-21.772-9.748-21.772-21.772v-32.658z"/><path id="Path_322_" d="m152.425 327.623h30.275c1.266-1.394 2.65-2.676 4.137-3.832l-9.602-28.826h-24.809v32.658z"/><path id="Path_321_" d="m500.779 360.281v-66.851c-3.548.977-7.207 1.492-10.886 1.535h-57.467l-13.521 40.659c-4.656 14.149-11.968 27.28-21.543 38.689-7.455 8.542-15.854 16.212-25.038 22.861-2.653 9.279-2.728 19.105-.218 28.423h63.357c36.058-.036 65.28-29.258 65.316-65.316z"/><path id="Path_320_" d="m134.801 164.332c15.789-80.495 85.277-139.284 167.275-141.519h2.754c83.56.072 155.308 59.447 171.009 141.519h14.054c2.8.013 5.592.293 8.339.838-6.667-40.433-25.867-77.751-54.887-106.683-37.322-37.773-88.529-58.544-141.617-57.446-94.237 2.353-173.606 71.122-189.352 164.064 2.436-.474 4.91-.732 7.392-.773z"/><path id="Path_319_" d="m119.767 273.193h54.43v-76.203c0-6.012-4.874-10.886-10.886-10.886h-43.544c-12.024 0-21.772 9.748-21.772 21.772v43.544c0 12.025 9.748 21.773 21.772 21.773z"/><path id="Path_318_" d="m557.757 610.66-41.498-69.181c-7.723-12.844-19.608-22.659-33.681-27.814l-81.362-29.556c-4.594 25.648-22.512 77.574-92.085 103.886-2.743 1.191-5.857 1.191-8.6 0-69.573-26.312-87.491-78.238-92.085-103.886l-81.373 29.556c-14.073 5.161-25.957 14.979-33.681 27.825l-41.487 69.17h89.636v-21.772c0-6.012 4.874-10.886 10.886-10.886s10.886 4.874 10.886 10.886v21.772h283.037v-21.772c0-6.012 4.874-10.886 10.886-10.886s10.886 4.874 10.886 10.886v21.772z"/><path id="Path_317_" d="m174.197 425.597h63.357c2.126-7.641 2.45-15.672.947-23.459-3.183 1.073-6.515 1.642-9.874 1.687h-21.772c-9.241-.022-18.036-3.981-24.178-10.886h-41.138c-9.789-.049-19.378-2.767-27.738-7.86 10.068 24.492 33.916 40.491 60.396 40.518z"/></g></g></g></g></svg>