<?xml version="1.0" encoding="iso-8859-1"?>
<!-- Generator: Adobe Illustrator 19.0.0, SVG Export Plug-In . SVG Version: 6.00 Build 0)  -->
<svg version="1.1" id="Capa_1" xmlns="http://www.w3.org/2000/svg" xmlns:xlink="http://www.w3.org/1999/xlink" x="0px" y="0px"
	 viewBox="0 0 480 480" style="enable-background:new 0 0 480 480;" xml:space="preserve">
<g>
	<g>
		<path d="M105.24,370.36l0.008-0.008c-6.127-0.486-12.19,1.535-16.8,5.6c-9.646,8.366-10.684,22.968-2.318,32.614
			c4.018,4.633,9.712,7.48,15.83,7.914c0.56,0.04,1.12,0.056,1.68,0.056c12.769-0.064,23.068-10.466,23.004-23.235
			C126.584,381.242,117.266,371.254,105.24,370.36z M110.736,393.896l-0.032,0.024c-0.119,1.879-0.983,3.633-2.4,4.872
			c-1.437,1.217-3.288,1.833-5.168,1.72c-3.922-0.282-6.875-3.686-6.6-7.608c0.268-3.72,3.358-6.605,7.088-6.616h0.512
			C108.058,386.569,111.011,389.973,110.736,393.896z"/>
	</g>
</g>
<g>
	<g>
		<path d="M393.24,370.36l0.008-0.008c-6.128-0.489-12.191,1.532-16.8,5.6c-9.646,8.366-10.684,22.968-2.318,32.614
			c4.018,4.633,9.712,7.48,15.83,7.914c0.56,0.04,1.12,0.056,1.68,0.056c12.769-0.064,23.068-10.466,23.004-23.235
			C414.584,381.242,405.266,371.254,393.24,370.36z M398.736,393.896l-0.032,0.024c-0.119,1.879-0.983,3.633-2.4,4.872
			c-1.439,1.215-3.289,1.83-5.168,1.72c-3.922-0.282-6.875-3.686-6.6-7.608c0.268-3.72,3.358-6.605,7.088-6.616h0.512
			C396.058,386.569,399.011,389.973,398.736,393.896z"/>
	</g>
</g>
<g>
	<g>
		<path d="M248,320.008h-32c-4.418,0-8,3.582-8,8s3.582,8,8,8h32c4.418,0,8-3.582,8-8S252.418,320.008,248,320.008z"/>
	</g>
</g>
<g>
	<g>
		<path d="M440,288.008h-4.152l-47.2-58.984c-10.6-13.313-26.702-21.054-43.72-21.016H288v-16h40
			c39.496-0.053,75.554-22.473,93.072-57.872c1.608-1.306,2.642-3.19,2.88-5.248c-0.009-0.217-0.031-0.433-0.064-0.648
			c5.365-12.734,8.123-26.414,8.112-40.232v-48c-0.005-1.049-0.214-2.087-0.616-3.056c-1.236-2.989-4.15-4.94-7.384-4.944h-48
			c-13.716-0.01-27.297,2.709-39.952,8c-1.1-0.014-2.19,0.204-3.2,0.64c-1.127,0.51-2.119,1.277-2.896,2.24
			c-27.138,13.474-47.073,38.087-54.616,67.432C257.123,76.867,222.09,56.035,184,56.008h-32h-0.128
			c-0.659,0.047-1.31,0.179-1.936,0.392c-0.376,0.06-0.748,0.145-1.112,0.256c-0.315,0.182-0.617,0.385-0.904,0.608
			c-0.601,0.321-1.157,0.719-1.656,1.184l-0.096,0.064c-0.217,0.3-0.412,0.616-0.584,0.944c-0.398,0.488-0.732,1.026-0.992,1.6
			c-0.195,0.589-0.318,1.198-0.368,1.816c-0.104,0.372-0.179,0.752-0.224,1.136v24c0.017,28.801,12.015,56.297,33.12,75.896
			c0.834,1.485,2.129,2.659,3.688,3.344c18.737,15.987,42.562,24.767,67.192,24.76h24v16h-74.624
			c-15.864,0.016-30.979,6.751-41.6,18.536l-55.824,62.032l-66.528,11.088C14.109,302.829-0.053,319.547,0,339.12v52.888
			c0,4.418,3.582,8,8,8h40.64c4.391,30.574,32.736,51.8,63.311,47.409c24.574-3.529,43.88-22.836,47.409-47.409h177.28
			c4.391,30.574,32.736,51.8,63.311,47.409c24.574-3.529,43.88-22.836,47.409-47.409H472c4.418,0,8-3.582,8-8v-64
			C479.974,305.927,462.081,288.034,440,288.008z M328,176.008h-28.688l47.624-47.624l55.6,6.176
			C386.505,160.309,358.332,175.975,328,176.008z M416,88.008c-0.017,10.703-2.002,21.311-5.856,31.296l-48.72-5.408L416,59.32
			V88.008z M376,48.008h28.688L362.696,90l-15.824-36.936C356.224,49.737,366.074,48.027,376,48.008z M332.32,59.72l18.192,42.456
			L322.696,130l-18.912-44.136C311.253,75.152,320.997,66.225,332.32,59.72z M288,136.008c0.014-10.976,2.095-21.851,6.136-32.056
			l16.376,38.224L288,164.696V136.008z M104,432.008c-22.091,0-40-17.909-40-40c0-22.091,17.909-40,40-40s40,17.909,40,40
			C143.974,414.088,126.081,431.981,104,432.008z M272,384.008H159.432c-0.088-0.616-0.24-1.208-0.352-1.816
			c-0.136-0.8-0.264-1.52-0.432-2.272c-0.224-1.016-0.496-2.008-0.8-3.008c-0.192-0.704-0.376-1.416-0.6-2.104
			c-0.336-1.04-0.728-2.048-1.12-3.056c-0.248-0.624-0.464-1.248-0.72-1.856c-0.496-1.144-1.056-2.256-1.6-3.36
			c-0.224-0.44-0.416-0.896-0.656-1.328c-0.821-1.509-1.715-2.979-2.68-4.408c-0.216-0.32-0.464-0.608-0.68-0.928
			c-0.8-1.096-1.6-2.176-2.4-3.2c-0.392-0.48-0.8-0.928-1.224-1.4c-0.728-0.8-1.448-1.656-2.216-2.4
			c-0.488-0.496-1-0.96-1.512-1.432c-0.744-0.704-1.488-1.408-2.272-2.072c-0.552-0.472-1.128-0.912-1.704-1.36
			c-0.8-0.616-1.6-1.216-2.4-1.792c-0.608-0.424-1.224-0.8-1.856-1.232c-0.8-0.536-1.672-1.056-2.536-1.544
			c-0.648-0.376-1.304-0.728-1.968-1.08c-0.888-0.456-1.784-0.888-2.696-1.296c-0.68-0.312-1.36-0.616-2.048-0.896
			c-0.944-0.384-1.912-0.72-2.88-1.056c-0.696-0.24-1.384-0.488-2.096-0.696c-1.024-0.304-2.064-0.552-3.104-0.8
			c-0.688-0.16-1.36-0.344-2.056-0.48c-1.168-0.232-2.4-0.392-3.56-0.544c-0.592-0.08-1.176-0.192-1.776-0.248
			c-1.808-0.232-3.64-0.336-5.488-0.336s-3.68,0.104-5.48,0.28c-0.6,0.056-1.184,0.168-1.776,0.248c-1.2,0.152-2.4,0.312-3.56,0.544
			c-0.696,0.136-1.368,0.32-2.056,0.48c-1.04,0.248-2.08,0.496-3.104,0.8c-0.712,0.208-1.4,0.456-2.096,0.696
			c-0.968,0.336-1.936,0.672-2.88,1.056c-0.688,0.28-1.368,0.584-2.048,0.896c-0.912,0.408-1.808,0.8-2.696,1.296
			c-0.664,0.352-1.32,0.704-1.968,1.08c-0.864,0.488-1.704,1.008-2.536,1.544c-0.632,0.4-1.248,0.8-1.856,1.232
			c-0.8,0.576-1.6,1.176-2.4,1.792c-0.576,0.448-1.152,0.888-1.704,1.36c-0.8,0.664-1.528,1.368-2.272,2.072
			c-0.512,0.472-1.024,0.936-1.512,1.432c-0.8,0.8-1.488,1.6-2.216,2.4c-0.408,0.472-0.8,0.92-1.224,1.4
			c-0.848,1.04-1.64,2.12-2.4,3.2c-0.216,0.32-0.464,0.608-0.68,0.928c-0.96,1.424-1.853,2.893-2.68,4.408
			c-0.24,0.432-0.432,0.888-0.656,1.328c-0.568,1.104-1.128,2.216-1.6,3.36c-0.256,0.608-0.472,1.232-0.72,1.856
			c-0.392,1.008-0.8,2.016-1.12,3.056c-0.224,0.688-0.408,1.4-0.6,2.104c-0.28,1-0.552,1.992-0.8,3.008
			c-0.168,0.752-0.296,1.504-0.432,2.272c-0.112,0.608-0.264,1.2-0.352,1.816H16V339.12c-0.032-11.744,8.466-21.775,20.056-23.672
			l68.608-11.44H272V384.008z M272,288.008H121.968l45.68-50.76c7.59-8.42,18.392-13.231,29.728-13.24H272V288.008z M184,72.008
			c8.119,0.02,16.196,1.167,24,3.408v30.128l-35.768-33.536H184z M160,88.008v-5.536l60.672,56.88L186.4,150.768
			C169.508,134.256,159.99,111.629,160,88.008z M248,176.008c-16.445-0.007-32.554-4.658-46.472-13.416l32.408-10.8l25.832,24.216
			H248z M272,165.544l-48.088-45.088c0-0.16,0.088-0.288,0.088-0.448V81.72c29.427,15.017,47.964,45.251,48,78.288V165.544z
			 M288,224.008h56.928c12.16-0.029,23.667,5.502,31.24,15.016l39.184,48.984H288V224.008z M392,432.008c-22.091,0-40-17.909-40-40
			c0-22.091,17.909-40,40-40c22.091,0,40,17.909,40,40C431.974,414.088,414.081,431.981,392,432.008z M464,384.008h-16.568
			c-0.088-0.616-0.24-1.208-0.352-1.816c-0.136-0.8-0.264-1.52-0.432-2.272c-0.224-1.016-0.496-2.008-0.8-3.008
			c-0.192-0.704-0.376-1.416-0.6-2.104c-0.336-1.04-0.728-2.048-1.12-3.056c-0.248-0.624-0.464-1.248-0.72-1.856
			c-0.496-1.144-1.056-2.256-1.6-3.36c-0.224-0.44-0.416-0.896-0.656-1.328c-0.827-1.509-1.72-2.979-2.68-4.408
			c-0.216-0.32-0.464-0.608-0.68-0.928c-0.8-1.096-1.6-2.176-2.4-3.2c-0.392-0.48-0.8-0.928-1.224-1.4
			c-0.728-0.8-1.448-1.656-2.216-2.4c-0.488-0.496-1-0.96-1.512-1.432c-0.744-0.704-1.488-1.408-2.272-2.072
			c-0.552-0.472-1.128-0.912-1.704-1.36c-0.8-0.616-1.6-1.216-2.4-1.792c-0.608-0.424-1.224-0.8-1.856-1.232
			c-0.8-0.536-1.672-1.056-2.536-1.544c-0.648-0.376-1.304-0.728-1.968-1.08c-0.888-0.456-1.784-0.888-2.696-1.296
			c-0.68-0.312-1.36-0.616-2.048-0.896c-0.944-0.384-1.912-0.72-2.88-1.056c-0.696-0.24-1.384-0.488-2.096-0.696
			c-1.024-0.304-2.064-0.552-3.104-0.8c-0.688-0.16-1.36-0.344-2.056-0.48c-1.168-0.232-2.36-0.392-3.56-0.544
			c-0.592-0.08-1.176-0.192-1.776-0.248c-1.808-0.232-3.64-0.336-5.488-0.336c-1.848,0-3.68,0.104-5.48,0.28
			c-0.6,0.056-1.184,0.168-1.776,0.248c-1.2,0.152-2.4,0.312-3.56,0.544c-0.696,0.136-1.368,0.32-2.056,0.48
			c-1.04,0.248-2.08,0.496-3.104,0.8c-0.712,0.208-1.4,0.456-2.096,0.696c-0.968,0.336-1.936,0.672-2.88,1.056
			c-0.688,0.28-1.368,0.584-2.048,0.896c-0.912,0.408-1.808,0.8-2.696,1.296c-0.664,0.352-1.32,0.704-1.968,1.08
			c-0.864,0.488-1.704,1.008-2.536,1.544c-0.632,0.4-1.248,0.8-1.856,1.232c-0.8,0.576-1.6,1.176-2.4,1.792
			c-0.576,0.448-1.152,0.888-1.704,1.36c-0.8,0.664-1.528,1.368-2.272,2.072c-0.512,0.472-1.024,0.936-1.512,1.432
			c-0.8,0.8-1.488,1.6-2.216,2.4c-0.408,0.472-0.8,0.92-1.224,1.4c-0.848,1.04-1.64,2.12-2.4,3.2
			c-0.216,0.32-0.464,0.608-0.68,0.928c-0.96,1.424-1.853,2.893-2.68,4.408c-0.24,0.432-0.432,0.888-0.656,1.328
			c-0.568,1.104-1.128,2.216-1.6,3.36c-0.256,0.608-0.472,1.232-0.72,1.856c-0.392,1.008-0.8,2.016-1.12,3.056
			c-0.224,0.688-0.408,1.4-0.6,2.104c-0.28,1-0.552,1.992-0.8,3.008c-0.168,0.752-0.296,1.504-0.432,2.272
			c-0.112,0.608-0.264,1.2-0.352,1.816H288v-79.944h152c13.255,0,24,10.745,24,24V384.008z"/>
	</g>
</g>
<g>
</g>
<g>
</g>
<g>
</g>
<g>
</g>
<g>
</g>
<g>
</g>
<g>
</g>
<g>
</g>
<g>
</g>
<g>
</g>
<g>
</g>
<g>
</g>
<g>
</g>
<g>
</g>
<g>
</g>
</svg>
