<svg id="Capa_1" enable-background="new 0 0 605.69 605.69" height="512" viewBox="0 0 605.69 605.69" width="512" xmlns="http://www.w3.org/2000/svg"><g><g id="Page-1_58_"><g id="_x30_59---Car-Mechanics" transform="translate(-1)"><path id="Shape_232_" d="m585.068 237.556c-3.715-1.11-8.136-2.312-13.193-3.553 6.153-10.898 6.032-24.249-.317-35.033s-17.965-17.368-30.48-17.274h-27.618l-22.338-58.202c-5.323-13.726-17.706-23.459-32.301-25.387-51.447-5.675-103.201-8.099-154.954-7.258-37.772 0-71.537.878-101.102 2.513 0-.838.162-1.645.162-2.493.013-36.607-19.731-70.372-51.641-88.313-6.018-3.429-13.404-3.403-19.397.067-5.994 3.471-9.692 9.864-9.714 16.79v51.248c.03 5.52-2.224 10.806-6.228 14.606-4.063 3.754-9.44 5.759-14.969 5.582-11.088-1.164-19.429-10.637-19.179-21.783v-49.653c.034-6.836-3.573-13.174-9.468-16.635-6.001-3.571-13.451-3.668-19.542-.252-31.733 17.652-51.513 51.011-51.776 87.321s19.03 69.953 50.503 88.063v249.828c-31.484 18.114-50.783 51.77-50.513 88.092.27 36.322 20.066 69.688 51.815 87.333 6.091 3.364 13.508 3.248 19.492-.303 5.9-3.454 9.515-9.788 9.488-16.625v-49.653c-.266-11.107 8.013-20.57 19.058-21.783 5.547-.311 10.978 1.678 15.012 5.498s6.316 9.134 6.307 14.69v51.268c-.037 6.906 3.641 13.298 9.63 16.736 5.975 3.539 13.391 3.597 19.421.151 45.343-25.424 64.049-81.067 43.273-128.719h240.591v30.282c0 16.724 13.558 30.282 30.282 30.282h70.658c16.724 0 30.282-13.558 30.282-30.282v-32.139c12.056-4.262 20.135-15.638 20.188-28.425v-22.045c12.056-4.262 20.135-15.638 20.188-28.425v-127.094c.076-13.415-8.745-25.255-21.62-29.021zm1.433 29.021v96.812h-113.225c-5.817-23.666-17.834-45.355-34.814-62.836-5.601-5.043-12.873-7.831-20.41-7.823h-228.369c-7.532-.009-14.801 2.775-20.4 7.813-6.547 6.029-12.212 12.951-16.827 20.562v-83.549c44.252-3.563 95.066-5.39 151.411-5.39 173.699 0 250.474 17.301 275.437 24.73 4.289 1.261 7.225 5.21 7.197 9.681zm-134.251 96.812h-296.765c4.948-17.968 14.318-34.41 27.254-47.826 1.905-1.715 4.381-2.658 6.945-2.645h228.368c2.554-.003 5.019.943 6.914 2.655 12.947 13.408 22.328 29.847 27.284 47.816zm88.828-161.505c6.139-.015 11.68 3.679 14.028 9.352s1.037 12.202-3.318 16.529c-.647.541-1.343 1.021-2.079 1.433-5.834-1.12-12.294-2.241-19.3-3.351l-9.196-23.963zm-237.211-90.847c50.881-.841 101.765 1.519 152.35 7.066 7.274.977 13.439 5.835 16.09 12.678l35.228 91.795c-67.6-7.793-135.624-11.333-203.668-10.599-56.194 0-106.997 1.807-151.411 5.32v-39.034c24.213-13.908 41.509-37.305 47.705-64.531 30.02-1.766 64.713-2.695 103.706-2.695zm-161.505 473.896v-49.945c.016-11.095-4.534-21.708-12.583-29.346s-18.885-11.627-29.964-11.03c-21.85 1.645-38.616 20.063-38.206 41.971v48.351c-25.839-14.919-41.36-42.857-40.376-72.677 1.324-29.58 18.494-56.149 44.919-69.508 3.404-1.715 5.552-5.202 5.552-9.014v-261.82c-.002-3.806-2.145-7.287-5.542-9.004-26.426-13.355-43.599-39.919-44.929-69.498-.983-29.82 14.538-57.758 40.377-72.677v48.351c-.358 21.941 16.472 40.348 38.357 41.951 11.054.553 21.85-3.455 29.865-11.088 8.014-7.633 12.544-18.221 12.531-29.288v-49.946c25.774 14.926 41.265 42.804 40.329 72.573s-18.15 56.618-44.811 69.895c-3.451 1.71-5.628 5.234-5.612 9.085v261.154c-.015 3.851 2.162 7.375 5.612 9.085 26.641 13.284 43.837 40.121 44.773 69.875.936 29.752-14.539 57.618-40.292 72.55zm403.763-80.228c0 5.575-4.519 10.094-10.094 10.094h-70.658c-5.575 0-10.094-4.519-10.094-10.094v-30.282h90.847v30.282zm10.094-50.47h-373.48c-8.173-10.907-18.475-20.042-30.282-26.85v-3.432h413.856v20.188c0 5.575-4.519 10.094-10.094 10.094zm20.188-50.47h-423.95v-20.188h434.045v10.094c-.001 5.575-4.52 10.094-10.095 10.094z"/><path id="Shape_231_" d="m515.842 343.201h20.188c16.724 0 30.282-13.558 30.282-30.282s-13.558-30.282-30.282-30.282h-30.282c-11.15 0-20.188 9.039-20.188 20.188v10.094c0 16.724 13.558 30.282 30.282 30.282zm-10.094-40.377h30.282c5.575 0 10.094 4.519 10.094 10.094s-4.519 10.094-10.094 10.094h-20.188c-5.575 0-10.094-4.519-10.094-10.094z"/><path id="Shape_230_" d="m273.585 262.448c0 5.575 4.519 10.094 10.094 10.094h40.376c5.575 0 10.094-4.519 10.094-10.094s-4.519-10.094-10.094-10.094h-40.376c-5.575 0-10.094 4.519-10.094 10.094z"/><path id="Shape_229_" d="m223.115 161.507c2.677-.001 5.244-1.064 7.137-2.958l10.094-10.094c3.825-3.961 3.771-10.256-.123-14.15s-10.189-3.948-14.15-.123l-10.094 10.094c-2.886 2.887-3.749 7.228-2.187 10.999s5.241 6.232 9.323 6.232z"/><path id="Shape_228_" d="m236.166 188.832c3.942 3.941 10.331 3.941 14.273 0l40.376-40.376c3.825-3.961 3.771-10.256-.123-14.15s-10.189-3.948-14.15-.123l-40.376 40.376c-3.94 3.942-3.94 10.331 0 14.273z"/></g></g></g></svg>