<svg id="Capa_1" enable-background="new 0 0 609.619 609.619" height="512" viewBox="0 0 609.619 609.619" width="512" xmlns="http://www.w3.org/2000/svg"><g><g id="Page-1_21_"><g id="_x30_22---Phone-and-Email"><path id="Shape_159_" d="m358.978 445.37 162.202-141.04c.892 2.852 1.365 5.819 1.404 8.807v266.382c-.025 2.449-.343 4.887-.947 7.261z"/><path id="Shape_158_" d="m493.661 283.037c4.993.038 9.883 1.426 14.152 4.017l-188.688 164.118c-8.229 7.06-20.379 7.06-28.609 0l-188.699-164.118c4.269-2.591 9.159-3.979 14.152-4.017z"/><path id="Shape_157_" d="m88.035 586.758c-.602-2.367-.92-4.797-.947-7.239v-266.382c.039-2.988.512-5.955 1.404-8.807l162.202 141.029z"/><path id="Shape_156_" d="m115.958 609.619c-5.528-.021-10.925-1.689-15.502-4.79l166.774-145.035 9.003 7.827c16.436 14.137 40.737 14.137 57.174 0l8.981-7.805 166.774 145.013c-4.577 3.101-9.973 4.769-15.502 4.79z"/><path id="Shape_155_" d="m152.405 217.721h-130.633c-12.024 0-21.772-9.748-21.772-21.772v-21.772h174.177v21.772c0 12.024-9.748 21.772-21.772 21.772z"/><path id="Shape_154_" d="m407.334 95.286c-33.969-4.885-68.212-7.622-102.525-8.197-34.313.575-68.556 3.313-102.525 8.197-16.099 2.308-28.067 16.079-28.108 32.342v24.777h-174.176v-43.545c0-69.18 111.103-108.86 304.809-108.86s304.809 39.68 304.809 108.86v43.544h-174.176v-24.777c-.041-16.263-12.009-30.034-28.108-32.341z"/><path id="Shape_153_" d="m587.847 217.721h-130.633c-12.024 0-21.772-9.748-21.772-21.772v-21.772h174.177v21.772c0 12.024-9.748 21.772-21.772 21.772z"/></g></g></g></svg>